<svg width="217" height="46" viewBox="0 0 217 46" fill="none" xmlns="http://www.w3.org/2000/svg">
<path d="M4.34 11.14C3.82667 11.14 3.34133 11.0933 2.884 11C2.42667 10.8973 2.03 10.776 1.694 10.636C1.358 10.496 1.11067 10.3653 0.952 10.244V7.738C1.4 7.99 1.96467 8.228 2.646 8.452C3.32733 8.66667 4.08333 8.774 4.914 8.774C5.25 8.774 5.49733 8.732 5.656 8.648C5.824 8.55467 5.908 8.396 5.908 8.172C5.908 7.92933 5.72133 7.72867 5.348 7.57C4.984 7.402 4.40533 7.19667 3.612 6.954C2.996 6.758 2.46867 6.54333 2.03 6.31C1.60067 6.06733 1.26933 5.76867 1.036 5.414C0.812 5.05 0.7 4.588 0.7 4.028C0.7 3.44933 0.849333 2.92667 1.148 2.46C1.44667 1.99333 1.91333 1.62467 2.548 1.354C3.18267 1.08333 3.99467 0.947999 4.984 0.947999C5.28267 0.947999 5.6 0.961999 5.936 0.99C6.28133 1.00867 6.55667 1.03667 6.762 1.074L8.344 2.236L7.798 3.944L4.48 3.034C4.09733 3.034 3.81267 3.11333 3.626 3.272C3.44867 3.43067 3.36 3.622 3.36 3.846C3.36 4.11667 3.514 4.33133 3.822 4.49C4.13 4.64867 4.57333 4.80733 5.152 4.966C6.06667 5.218 6.776 5.498 7.28 5.806C7.784 6.114 8.13867 6.464 8.344 6.856C8.54933 7.23867 8.652 7.67267 8.652 8.158C8.652 9.054 8.29267 9.77733 7.574 10.328C6.85533 10.8693 5.77733 11.14 4.34 11.14ZM13.1488 11.14C12.0102 11.14 11.1282 10.8693 10.5028 10.328C9.87751 9.78667 9.56484 8.90933 9.56484 7.696C9.56484 6.47333 9.87751 5.596 10.5028 5.064C11.1282 4.52267 12.0102 4.252 13.1488 4.252C14.3155 4.252 15.1975 4.52267 15.7948 5.064C16.4015 5.596 16.7048 6.47333 16.7048 7.696C16.7048 8.90933 16.4015 9.78667 15.7948 10.328C15.1975 10.8693 14.3155 11.14 13.1488 11.14ZM13.1488 9.32C13.5315 9.32 13.7975 9.18 13.9468 8.9C14.0962 8.61067 14.1708 8.20933 14.1708 7.696C14.1708 7.17333 14.0962 6.772 13.9468 6.492C13.7975 6.212 13.5315 6.072 13.1488 6.072C12.7568 6.072 12.4815 6.212 12.3228 6.492C12.1735 6.772 12.0988 7.17333 12.0988 7.696C12.0988 8.20933 12.1735 8.61067 12.3228 8.9C12.4815 9.18 12.7568 9.32 13.1488 9.32ZM17.9028 11V6.618L17.6088 5.218L17.9028 4.378H19.8068L20.0868 4.7C20.0868 4.7 20.1522 4.66267 20.2828 4.588C20.4135 4.504 20.5955 4.42467 20.8288 4.35C21.0715 4.27533 21.3515 4.238 21.6688 4.238C21.8555 4.238 22.0422 4.252 22.2288 4.28C22.4155 4.308 22.5602 4.34533 22.6628 4.392L23.5728 5.162L22.6628 6.954L20.8148 6.184L20.3948 6.324V11H17.9028ZM24.4243 11V6.618L24.1303 5.218L24.4243 4.378H26.3283L26.6083 4.7C26.6083 4.7 26.6736 4.66267 26.8043 4.588C26.935 4.504 27.117 4.42467 27.3503 4.35C27.593 4.27533 27.873 4.238 28.1903 4.238C28.377 4.238 28.5636 4.252 28.7503 4.28C28.937 4.308 29.0816 4.34533 29.1843 4.392L30.0943 5.162L29.1843 6.954L27.3363 6.184L26.9163 6.324V11H24.4243ZM31.5058 14.402L29.5318 13.702L30.0918 11.616L32.0518 12.176C32.4531 12.176 32.7425 12.0687 32.9198 11.854C33.1065 11.6487 33.2465 11.3593 33.3398 10.986H31.8978L30.3578 6.198L30.0918 4.378H32.7518L33.5218 8.998H33.8018L34.5718 4.378H37.2318C37.2318 4.378 37.1991 4.52733 37.1338 4.826C37.0778 5.11533 36.9938 5.50267 36.8818 5.988C36.7791 6.47333 36.6531 7.01 36.5038 7.598C36.3638 8.17667 36.2145 8.76467 36.0558 9.362C35.8971 9.95 35.7338 10.4913 35.5658 10.986C35.3138 11.7607 35.0105 12.4 34.6558 12.904C34.3105 13.408 33.8858 13.7813 33.3818 14.024C32.8778 14.276 32.2525 14.402 31.5058 14.402ZM43.3885 11.14C42.9872 11.14 42.6138 11.084 42.2685 10.972C41.9325 10.8507 41.6618 10.6453 41.4565 10.356C41.2512 10.0667 41.1485 9.66533 41.1485 9.152C41.1485 8.68533 41.2652 8.298 41.4985 7.99C41.7318 7.682 42.0492 7.45333 42.4505 7.304C42.8518 7.15467 43.3045 7.08 43.8085 7.08C44.2938 7.08 44.6578 7.136 44.9005 7.248C45.1432 7.35067 45.3532 7.458 45.5305 7.57L45.6285 7.486C45.6285 7.206 45.6052 6.97267 45.5585 6.786C45.5118 6.59933 45.4045 6.45933 45.2365 6.366C45.0685 6.26333 44.8072 6.212 44.4525 6.212C44.1072 6.212 43.7385 6.24467 43.3465 6.31C42.9638 6.366 42.6092 6.44067 42.2825 6.534C41.9652 6.618 41.7272 6.702 41.5685 6.786V4.686C41.8578 4.58333 42.2685 4.49 42.8005 4.406C43.3418 4.31267 44.0045 4.266 44.7885 4.266C45.6285 4.266 46.2912 4.37333 46.7765 4.588C47.2712 4.79333 47.6258 5.09667 47.8405 5.498C48.0552 5.89 48.1625 6.36133 48.1625 6.912V8.774L48.4425 10.188L48.1625 11.014H45.7685V10.328L45.6285 10.258C45.5538 10.3327 45.4232 10.44 45.2365 10.58C45.0498 10.72 44.8025 10.8507 44.4945 10.972C44.1865 11.084 43.8178 11.14 43.3885 11.14ZM44.5785 9.306C44.8305 9.306 45.0452 9.28267 45.2225 9.236C45.4092 9.18933 45.5445 9.14733 45.6285 9.11V8.844C45.6285 8.72267 45.5398 8.606 45.3625 8.494C45.1945 8.382 44.9285 8.326 44.5645 8.326C44.0605 8.326 43.8085 8.50333 43.8085 8.858C43.8085 9.00733 43.8645 9.11933 43.9765 9.194C44.0885 9.26867 44.2892 9.306 44.5785 9.306ZM49.854 11V6.618L49.56 5.218L49.854 4.378H51.758L52.038 4.7C52.038 4.7 52.1033 4.66267 52.234 4.588C52.3647 4.504 52.5467 4.42467 52.78 4.35C53.0227 4.27533 53.3027 4.238 53.62 4.238C53.8067 4.238 53.9933 4.252 54.18 4.28C54.3667 4.308 54.5113 4.34533 54.614 4.392L55.524 5.162L54.614 6.954L52.766 6.184L52.346 6.324V11H49.854ZM58.7835 11.14C58.1488 11.14 57.6402 10.9533 57.2575 10.58C56.8748 10.2067 56.6835 9.73533 56.6835 9.166V6.114H55.6615V4.784L56.5435 4.098L57.5375 2.362H59.1895V4.392H61.1495V6.212H59.1895V9.208L61.1495 9.194V10.72C61.1495 10.72 61.0375 10.7573 60.8135 10.832C60.5988 10.8973 60.3142 10.9627 59.9595 11.028C59.6048 11.1027 59.2128 11.14 58.7835 11.14ZM63.6645 3.986L61.8865 2.194L63.6645 0.415999L65.4425 2.194L63.6645 3.986ZM62.4045 11V6.366L62.1105 5.246L62.3905 4.392H64.9245V11H62.4045ZM69.2223 11.14C68.541 11.14 67.939 11.07 67.4163 10.93C66.8937 10.79 66.4877 10.6453 66.1983 10.496V8.55C66.581 8.718 66.973 8.84867 67.3743 8.942C67.785 9.03533 68.1537 9.10067 68.4803 9.138C68.807 9.166 69.0403 9.18 69.1803 9.18C69.339 9.18 69.451 9.15667 69.5163 9.11C69.5817 9.054 69.6143 8.98867 69.6143 8.914C69.6143 8.81133 69.5303 8.72733 69.3623 8.662C69.1943 8.58733 68.877 8.494 68.4103 8.382C68.0277 8.28867 67.6543 8.172 67.2903 8.032C66.9357 7.88267 66.6417 7.67733 66.4083 7.416C66.1843 7.15467 66.0723 6.80467 66.0723 6.366C66.0723 5.82467 66.1983 5.4 66.4503 5.092C66.7023 4.784 67.0617 4.56933 67.5283 4.448C67.995 4.31733 68.541 4.252 69.1663 4.252C69.521 4.252 69.8523 4.27067 70.1603 4.308C70.4683 4.34533 70.6877 4.37333 70.8183 4.392L72.1203 5.232L71.4903 6.73L69.0403 6.198C68.7417 6.198 68.5923 6.296 68.5923 6.492C68.5923 6.69733 68.807 6.85133 69.2363 6.954C69.5723 7.02867 69.9177 7.11267 70.2723 7.206C70.627 7.29 70.949 7.402 71.2383 7.542C71.537 7.682 71.775 7.86867 71.9523 8.102C72.139 8.33533 72.2323 8.64333 72.2323 9.026C72.2323 9.73533 71.9757 10.2673 71.4623 10.622C70.9583 10.9673 70.2117 11.14 69.2223 11.14ZM75.9143 11.14C75.2797 11.14 74.771 10.9533 74.3883 10.58C74.0057 10.2067 73.8143 9.73533 73.8143 9.166V6.114H72.7923V4.784L73.6743 4.098L74.6683 2.362H76.3203V4.392H78.2803V6.212H76.3203V9.208L78.2803 9.194V10.72C78.2803 10.72 78.1683 10.7573 77.9443 10.832C77.7297 10.8973 77.445 10.9627 77.0903 11.028C76.7357 11.1027 76.3437 11.14 75.9143 11.14ZM83.4726 14.402L81.4986 13.702L82.0586 11.616L84.0186 12.176C84.4199 12.176 84.7093 12.0687 84.8866 11.854C85.0733 11.6487 85.2133 11.3593 85.3066 10.986H83.8646L82.3246 6.198L82.0586 4.378H84.7186L85.4886 8.998H85.7686L86.5386 4.378H89.1986C89.1986 4.378 89.1659 4.52733 89.1006 4.826C89.0446 5.11533 88.9606 5.50267 88.8486 5.988C88.7459 6.47333 88.6199 7.01 88.4706 7.598C88.3306 8.17667 88.1813 8.76467 88.0226 9.362C87.8639 9.95 87.7006 10.4913 87.5326 10.986C87.2806 11.7607 86.9773 12.4 86.6226 12.904C86.2773 13.408 85.8526 13.7813 85.3486 14.024C84.8446 14.276 84.2193 14.402 83.4726 14.402ZM92.9926 11.14C91.8539 11.14 90.9719 10.8693 90.3466 10.328C89.7213 9.78667 89.4086 8.90933 89.4086 7.696C89.4086 6.47333 89.7213 5.596 90.3466 5.064C90.9719 4.52267 91.8539 4.252 92.9926 4.252C94.1593 4.252 95.0413 4.52267 95.6386 5.064C96.2453 5.596 96.5486 6.47333 96.5486 7.696C96.5486 8.90933 96.2453 9.78667 95.6386 10.328C95.0413 10.8693 94.1593 11.14 92.9926 11.14ZM92.9926 9.32C93.3753 9.32 93.6413 9.18 93.7906 8.9C93.9399 8.61067 94.0146 8.20933 94.0146 7.696C94.0146 7.17333 93.9399 6.772 93.7906 6.492C93.6413 6.212 93.3753 6.072 92.9926 6.072C92.6006 6.072 92.3253 6.212 92.1666 6.492C92.0173 6.772 91.9426 7.17333 91.9426 7.696C91.9426 8.20933 92.0173 8.61067 92.1666 8.9C92.3253 9.18 92.6006 9.32 92.9926 9.32ZM99.5526 11.14C98.9926 11.14 98.5586 11.0327 98.2506 10.818C97.9519 10.6033 97.7419 10.2953 97.6206 9.894C97.5086 9.48333 97.4526 8.99333 97.4526 8.424V4.378H99.9726V8.06C99.9726 8.40533 100.038 8.676 100.169 8.872C100.309 9.068 100.514 9.166 100.785 9.166C101.037 9.166 101.265 9.05867 101.471 8.844C101.685 8.62933 101.793 8.31667 101.793 7.906V4.378H104.313V8.746L104.607 10.146L104.313 11H101.947V10.314L101.807 10.244C101.685 10.3653 101.508 10.496 101.275 10.636C101.051 10.776 100.789 10.8973 100.491 11C100.201 11.0933 99.8886 11.14 99.5526 11.14ZM109.327 11L109.313 3.328L109.033 1.928L109.327 1.088H111.847V11H109.327ZM116.618 11.14C115.479 11.14 114.597 10.8693 113.972 10.328C113.346 9.78667 113.034 8.90933 113.034 7.696C113.034 6.47333 113.346 5.596 113.972 5.064C114.597 4.52267 115.479 4.252 116.618 4.252C117.784 4.252 118.666 4.52267 119.264 5.064C119.87 5.596 120.174 6.47333 120.174 7.696C120.174 8.90933 119.87 9.78667 119.264 10.328C118.666 10.8693 117.784 11.14 116.618 11.14ZM116.618 9.32C117 9.32 117.266 9.18 117.416 8.9C117.565 8.61067 117.64 8.20933 117.64 7.696C117.64 7.17333 117.565 6.772 117.416 6.492C117.266 6.212 117 6.072 116.618 6.072C116.226 6.072 115.95 6.212 115.792 6.492C115.642 6.772 115.568 7.17333 115.568 7.696C115.568 8.20933 115.642 8.61067 115.792 8.9C115.95 9.18 116.226 9.32 116.618 9.32ZM124.452 11.14C123.313 11.14 122.431 10.8693 121.806 10.328C121.18 9.78667 120.868 8.90933 120.868 7.696C120.868 6.47333 121.18 5.596 121.806 5.064C122.431 4.52267 123.313 4.252 124.452 4.252C125.618 4.252 126.5 4.52267 127.098 5.064C127.704 5.596 128.008 6.47333 128.008 7.696C128.008 8.90933 127.704 9.78667 127.098 10.328C126.5 10.8693 125.618 11.14 124.452 11.14ZM124.452 9.32C124.834 9.32 125.1 9.18 125.25 8.9C125.399 8.61067 125.474 8.20933 125.474 7.696C125.474 7.17333 125.399 6.772 125.25 6.492C125.1 6.212 124.834 6.072 124.452 6.072C124.06 6.072 123.784 6.212 123.626 6.492C123.476 6.772 123.402 7.17333 123.402 7.696C123.402 8.20933 123.476 8.61067 123.626 8.9C123.784 9.18 124.06 9.32 124.452 9.32ZM129.206 11V3.328L128.912 1.928L129.206 1.088H131.726V3.328L131.572 6.954H132.132L133.21 4.392H136.066V5.232L134.512 7.5L135.548 8.76L136.864 10.174V11H134.148L132.566 8.69L131.726 8.83V11H129.206ZM139.106 3.986L137.328 2.194L139.106 0.415999L140.884 2.194L139.106 3.986ZM137.846 11V6.366L137.552 5.246L137.832 4.392H140.366V11H137.846ZM141.934 11V6.786L141.654 5.246L142.088 4.392H144.174V4.994L144.3 5.078C144.402 4.98467 144.542 4.87733 144.72 4.756C144.906 4.62533 145.13 4.50867 145.392 4.406C145.653 4.30333 145.947 4.252 146.274 4.252C147.114 4.252 147.744 4.49 148.164 4.966C148.584 5.442 148.794 6.10933 148.794 6.968V8.746L149.088 10.146L148.794 11H146.274V7.332C146.274 6.97733 146.194 6.70667 146.036 6.52C145.886 6.324 145.648 6.226 145.322 6.226L144.454 6.492V11H141.934ZM153.182 14.402C152.948 14.402 152.682 14.3927 152.384 14.374C152.085 14.3647 151.842 14.3507 151.656 14.332L149.948 13.506L150.648 11.686L152.846 12.4C154.087 12.4 154.708 11.882 154.708 10.846V10.58L154.568 10.51C154.437 10.6407 154.227 10.776 153.938 10.916C153.658 11.0467 153.214 11.112 152.608 11.112C152.169 11.112 151.744 11.0047 151.334 10.79C150.923 10.566 150.587 10.2113 150.326 9.726C150.074 9.24067 149.948 8.61067 149.948 7.836C149.948 6.968 150.078 6.27267 150.34 5.75C150.601 5.218 150.932 4.83067 151.334 4.588C151.744 4.34533 152.169 4.224 152.608 4.224C153.093 4.224 153.49 4.294 153.798 4.434C154.115 4.574 154.325 4.70933 154.428 4.84V4.378H156.962L157.102 5.218L156.948 6.058L156.962 10.986C156.962 11.7887 156.803 12.442 156.486 12.946C156.178 13.45 155.739 13.8187 155.17 14.052C154.61 14.2853 153.947 14.402 153.182 14.402ZM153.658 9.138C153.826 9.138 153.98 9.11467 154.12 9.068C154.26 9.02133 154.362 8.97933 154.428 8.942V6.324C154.39 6.296 154.32 6.268 154.218 6.24C154.115 6.212 153.975 6.198 153.798 6.198C153.434 6.198 153.144 6.31467 152.93 6.548C152.715 6.78133 152.608 7.15933 152.608 7.682C152.608 8.19533 152.71 8.56867 152.916 8.802C153.121 9.026 153.368 9.138 153.658 9.138ZM162.049 11V6.464L161.307 5.064L162.049 4.392C162.003 4.23333 161.965 4.02333 161.937 3.762C161.919 3.49133 161.909 3.272 161.909 3.104C161.909 2.572 162.031 2.10533 162.273 1.704C162.525 1.30267 162.871 0.99 163.309 0.766C163.748 0.532666 164.243 0.415999 164.793 0.415999C165.055 0.415999 165.33 0.43 165.619 0.458C165.918 0.476666 166.175 0.513999 166.389 0.569999L167.887 1.424L166.809 3.37L165.199 2.39C164.882 2.39 164.649 2.50667 164.499 2.74C164.35 2.964 164.275 3.216 164.275 3.496C164.275 3.70133 164.308 3.88333 164.373 4.042C164.439 4.20067 164.504 4.31733 164.569 4.392H166.809V6.072H164.569V8.732L164.709 10.146L164.569 11H162.049ZM170.84 11.14C169.702 11.14 168.82 10.8693 168.194 10.328C167.569 9.78667 167.256 8.90933 167.256 7.696C167.256 6.47333 167.569 5.596 168.194 5.064C168.82 4.52267 169.702 4.252 170.84 4.252C172.007 4.252 172.889 4.52267 173.486 5.064C174.093 5.596 174.396 6.47333 174.396 7.696C174.396 8.90933 174.093 9.78667 173.486 10.328C172.889 10.8693 172.007 11.14 170.84 11.14ZM170.84 9.32C171.223 9.32 171.489 9.18 171.638 8.9C171.788 8.61067 171.862 8.20933 171.862 7.696C171.862 7.17333 171.788 6.772 171.638 6.492C171.489 6.212 171.223 6.072 170.84 6.072C170.448 6.072 170.173 6.212 170.014 6.492C169.865 6.772 169.79 7.17333 169.79 7.696C169.79 8.20933 169.865 8.61067 170.014 8.9C170.173 9.18 170.448 9.32 170.84 9.32ZM175.594 11V6.618L175.3 5.218L175.594 4.378H177.498L177.778 4.7C177.778 4.7 177.844 4.66267 177.974 4.588C178.105 4.504 178.287 4.42467 178.52 4.35C178.763 4.27533 179.043 4.238 179.36 4.238C179.547 4.238 179.734 4.252 179.92 4.28C180.107 4.308 180.252 4.34533 180.354 4.392L181.264 5.162L180.354 6.954L178.506 6.184L178.086 6.324V11H175.594ZM183.6 11L181.682 6.212L181.402 4.392H184.062L184.972 8.76H185.252L186.316 4.392H189.102L190.152 8.76H190.432L191.356 4.392H194.002L193.722 6.212L191.79 11H188.85L187.842 6.492H187.562L186.54 11H183.6ZM196.801 11.14C196.399 11.14 196.026 11.084 195.681 10.972C195.345 10.8507 195.074 10.6453 194.869 10.356C194.663 10.0667 194.561 9.66533 194.561 9.152C194.561 8.68533 194.677 8.298 194.911 7.99C195.144 7.682 195.461 7.45333 195.863 7.304C196.264 7.15467 196.717 7.08 197.221 7.08C197.706 7.08 198.07 7.136 198.313 7.248C198.555 7.35067 198.765 7.458 198.943 7.57L199.041 7.486C199.041 7.206 199.017 6.97267 198.971 6.786C198.924 6.59933 198.817 6.45933 198.649 6.366C198.481 6.26333 198.219 6.212 197.865 6.212C197.519 6.212 197.151 6.24467 196.759 6.31C196.376 6.366 196.021 6.44067 195.695 6.534C195.377 6.618 195.139 6.702 194.981 6.786V4.686C195.27 4.58333 195.681 4.49 196.213 4.406C196.754 4.31267 197.417 4.266 198.201 4.266C199.041 4.266 199.703 4.37333 200.189 4.588C200.683 4.79333 201.038 5.09667 201.253 5.498C201.467 5.89 201.575 6.36133 201.575 6.912V8.774L201.855 10.188L201.575 11.014H199.181V10.328L199.041 10.258C198.966 10.3327 198.835 10.44 198.649 10.58C198.462 10.72 198.215 10.8507 197.907 10.972C197.599 11.084 197.23 11.14 196.801 11.14ZM197.991 9.306C198.243 9.306 198.457 9.28267 198.635 9.236C198.821 9.18933 198.957 9.14733 199.041 9.11V8.844C199.041 8.72267 198.952 8.606 198.775 8.494C198.607 8.382 198.341 8.326 197.977 8.326C197.473 8.326 197.221 8.50333 197.221 8.858C197.221 9.00733 197.277 9.11933 197.389 9.194C197.501 9.26867 197.701 9.306 197.991 9.306ZM203.266 11V6.618L202.972 5.218L203.266 4.378H205.17L205.45 4.7C205.45 4.7 205.515 4.66267 205.646 4.588C205.777 4.504 205.959 4.42467 206.192 4.35C206.435 4.27533 206.715 4.238 207.032 4.238C207.219 4.238 207.405 4.252 207.592 4.28C207.779 4.308 207.923 4.34533 208.026 4.392L208.936 5.162L208.026 6.954L206.178 6.184L205.758 6.324V11H203.266ZM211.52 11.14C211.081 11.14 210.656 11.028 210.246 10.804C209.844 10.58 209.513 10.2253 209.252 9.74C208.99 9.25467 208.86 8.62 208.86 7.836C208.86 6.968 208.986 6.27267 209.238 5.75C209.499 5.22733 209.835 4.84933 210.246 4.616C210.656 4.37333 211.081 4.252 211.52 4.252C212.182 4.252 212.649 4.308 212.92 4.42C213.2 4.532 213.34 4.588 213.34 4.588L213.2 1.942L213.34 1.102H215.874V8.76L216.154 10.16L215.874 11.014H213.48V10.328L213.34 10.258C213.34 10.258 213.27 10.3327 213.13 10.482C212.99 10.622 212.784 10.7667 212.514 10.916C212.243 11.0653 211.912 11.14 211.52 11.14ZM212.57 9.166L213.34 8.97V6.926C213.34 6.71133 213.27 6.54333 213.13 6.422C212.99 6.29133 212.803 6.226 212.57 6.226C212.224 6.226 211.963 6.34267 211.786 6.576C211.608 6.8 211.52 7.17333 211.52 7.696C211.52 8.20933 211.622 8.58267 211.828 8.816C212.033 9.04933 212.28 9.166 212.57 9.166ZM2.338 28L0.42 23.212L0.14 21.392H2.8L3.71 25.76H3.99L5.054 21.392H7.84L8.89 25.76H9.17L10.094 21.392H12.74L12.46 23.212L10.528 28H7.588L6.58 23.492H6.3L5.278 28H2.338ZM15.5389 28.14C15.1376 28.14 14.7642 28.084 14.4189 27.972C14.0829 27.8507 13.8122 27.6453 13.6069 27.356C13.4016 27.0667 13.2989 26.6653 13.2989 26.152C13.2989 25.6853 13.4156 25.298 13.6489 24.99C13.8822 24.682 14.1996 24.4533 14.6009 24.304C15.0022 24.1547 15.4549 24.08 15.9589 24.08C16.4442 24.08 16.8082 24.136 17.0509 24.248C17.2936 24.3507 17.5036 24.458 17.6809 24.57L17.7789 24.486C17.7789 24.206 17.7556 23.9727 17.7089 23.786C17.6622 23.5993 17.5549 23.4593 17.3869 23.366C17.2189 23.2633 16.9576 23.212 16.6029 23.212C16.2576 23.212 15.8889 23.2447 15.4969 23.31C15.1142 23.366 14.7596 23.4407 14.4329 23.534C14.1156 23.618 13.8776 23.702 13.7189 23.786V21.686C14.0082 21.5833 14.4189 21.49 14.9509 21.406C15.4922 21.3127 16.1549 21.266 16.9389 21.266C17.7789 21.266 18.4416 21.3733 18.9269 21.588C19.4216 21.7933 19.7762 22.0967 19.9909 22.498C20.2056 22.89 20.3129 23.3613 20.3129 23.912V25.774L20.5929 27.188L20.3129 28.014H17.9189V27.328L17.7789 27.258C17.7042 27.3327 17.5736 27.44 17.3869 27.58C17.2002 27.72 16.9529 27.8507 16.6449 27.972C16.3369 28.084 15.9682 28.14 15.5389 28.14ZM16.7289 26.306C16.9809 26.306 17.1956 26.2827 17.3729 26.236C17.5596 26.1893 17.6949 26.1473 17.7789 26.11V25.844C17.7789 25.7227 17.6902 25.606 17.5129 25.494C17.3449 25.382 17.0789 25.326 16.7149 25.326C16.2109 25.326 15.9589 25.5033 15.9589 25.858C15.9589 26.0073 16.0149 26.1193 16.1269 26.194C16.2389 26.2687 16.4396 26.306 16.7289 26.306ZM24.7204 28.14C24.0391 28.14 23.4371 28.07 22.9144 27.93C22.3917 27.79 21.9857 27.6453 21.6964 27.496V25.55C22.0791 25.718 22.4711 25.8487 22.8724 25.942C23.2831 26.0353 23.6517 26.1007 23.9784 26.138C24.3051 26.166 24.5384 26.18 24.6784 26.18C24.8371 26.18 24.9491 26.1567 25.0144 26.11C25.0797 26.054 25.1124 25.9887 25.1124 25.914C25.1124 25.8113 25.0284 25.7273 24.8604 25.662C24.6924 25.5873 24.3751 25.494 23.9084 25.382C23.5257 25.2887 23.1524 25.172 22.7884 25.032C22.4337 24.8827 22.1397 24.6773 21.9064 24.416C21.6824 24.1547 21.5704 23.8047 21.5704 23.366C21.5704 22.8247 21.6964 22.4 21.9484 22.092C22.2004 21.784 22.5597 21.5693 23.0264 21.448C23.4931 21.3173 24.0391 21.252 24.6644 21.252C25.0191 21.252 25.3504 21.2707 25.6584 21.308C25.9664 21.3453 26.1857 21.3733 26.3164 21.392L27.6184 22.232L26.9884 23.73L24.5384 23.198C24.2397 23.198 24.0904 23.296 24.0904 23.492C24.0904 23.6973 24.3051 23.8513 24.7344 23.954C25.0704 24.0287 25.4157 24.1127 25.7704 24.206C26.1251 24.29 26.4471 24.402 26.7364 24.542C27.0351 24.682 27.2731 24.8687 27.4504 25.102C27.6371 25.3353 27.7304 25.6433 27.7304 26.026C27.7304 26.7353 27.4737 27.2673 26.9604 27.622C26.4564 27.9673 25.7097 28.14 24.7204 28.14ZM32.3537 28V23.786L32.0737 22.246L32.5077 21.392H34.5937V21.994L34.7197 22.078C34.8223 21.9847 34.9623 21.8773 35.1397 21.756C35.3263 21.6253 35.5503 21.5087 35.8117 21.406C36.073 21.3033 36.367 21.252 36.6937 21.252C37.5337 21.252 38.1637 21.49 38.5837 21.966C39.0037 22.442 39.2137 23.1093 39.2137 23.968V25.746L39.5077 27.146L39.2137 28H36.6937V24.332C36.6937 23.9773 36.6143 23.7067 36.4557 23.52C36.3063 23.324 36.0683 23.226 35.7417 23.226L34.8737 23.492V28H32.3537ZM43.9516 28.14C42.8129 28.14 41.9309 27.8693 41.3056 27.328C40.6802 26.7867 40.3676 25.9093 40.3676 24.696C40.3676 23.4733 40.6802 22.596 41.3056 22.064C41.9309 21.5227 42.8129 21.252 43.9516 21.252C45.1182 21.252 46.0002 21.5227 46.5976 22.064C47.2042 22.596 47.5076 23.4733 47.5076 24.696C47.5076 25.9093 47.2042 26.7867 46.5976 27.328C46.0002 27.8693 45.1182 28.14 43.9516 28.14ZM43.9516 26.32C44.3342 26.32 44.6002 26.18 44.7496 25.9C44.8989 25.6107 44.9736 25.2093 44.9736 24.696C44.9736 24.1733 44.8989 23.772 44.7496 23.492C44.6002 23.212 44.3342 23.072 43.9516 23.072C43.5596 23.072 43.2842 23.212 43.1256 23.492C42.9762 23.772 42.9016 24.1733 42.9016 24.696C42.9016 25.2093 42.9762 25.6107 43.1256 25.9C43.2842 26.18 43.5596 26.32 43.9516 26.32ZM51.1136 28.14C50.4789 28.14 49.9702 27.9533 49.5876 27.58C49.2049 27.2067 49.0136 26.7353 49.0136 26.166V23.114H47.9916V21.784L48.8736 21.098L49.8676 19.362H51.5196V21.392H53.4796V23.212H51.5196V26.208L53.4796 26.194V27.72C53.4796 27.72 53.3676 27.7573 53.1436 27.832C52.9289 27.8973 52.6442 27.9627 52.2896 28.028C51.9349 28.1027 51.5429 28.14 51.1136 28.14ZM58.2798 28V23.464L57.5378 22.064L58.2798 21.392C58.2331 21.2333 58.1958 21.0233 58.1678 20.762C58.1491 20.4913 58.1398 20.272 58.1398 20.104C58.1398 19.572 58.2611 19.1053 58.5038 18.704C58.7558 18.3027 59.1011 17.99 59.5398 17.766C59.9785 17.5327 60.4731 17.416 61.0238 17.416C61.2851 17.416 61.5605 17.43 61.8498 17.458C62.1485 17.4767 62.4051 17.514 62.6198 17.57L64.1178 18.424L63.0398 20.37L61.4298 19.39C61.1125 19.39 60.8791 19.5067 60.7298 19.74C60.5805 19.964 60.5058 20.216 60.5058 20.496C60.5058 20.7013 60.5385 20.8833 60.6038 21.042C60.6691 21.2007 60.7345 21.3173 60.7998 21.392H63.0398V23.072H60.7998V25.732L60.9398 27.146L60.7998 28H58.2798ZM67.0707 28.14C65.9321 28.14 65.0501 27.8693 64.4247 27.328C63.7994 26.7867 63.4867 25.9093 63.4867 24.696C63.4867 23.4733 63.7994 22.596 64.4247 22.064C65.0501 21.5227 65.9321 21.252 67.0707 21.252C68.2374 21.252 69.1194 21.5227 69.7167 22.064C70.3234 22.596 70.6267 23.4733 70.6267 24.696C70.6267 25.9093 70.3234 26.7867 69.7167 27.328C69.1194 27.8693 68.2374 28.14 67.0707 28.14ZM67.0707 26.32C67.4534 26.32 67.7194 26.18 67.8687 25.9C68.0181 25.6107 68.0927 25.2093 68.0927 24.696C68.0927 24.1733 68.0181 23.772 67.8687 23.492C67.7194 23.212 67.4534 23.072 67.0707 23.072C66.6787 23.072 66.4034 23.212 66.2447 23.492C66.0954 23.772 66.0207 24.1733 66.0207 24.696C66.0207 25.2093 66.0954 25.6107 66.2447 25.9C66.4034 26.18 66.6787 26.32 67.0707 26.32ZM73.6307 28.14C73.0707 28.14 72.6367 28.0327 72.3287 27.818C72.03 27.6033 71.82 27.2953 71.6987 26.894C71.5867 26.4833 71.5307 25.9933 71.5307 25.424V21.378H74.0507V25.06C74.0507 25.4053 74.116 25.676 74.2467 25.872C74.3867 26.068 74.592 26.166 74.8627 26.166C75.1147 26.166 75.3434 26.0587 75.5487 25.844C75.7634 25.6293 75.8707 25.3167 75.8707 24.906V21.378H78.3907V25.746L78.6847 27.146L78.3907 28H76.0247V27.314L75.8847 27.244C75.7634 27.3653 75.586 27.496 75.3527 27.636C75.1287 27.776 74.8674 27.8973 74.5687 28C74.2794 28.0933 73.9667 28.14 73.6307 28.14ZM80.0275 28V23.786L79.7475 22.246L80.1815 21.392H82.2675V21.994L82.3935 22.078C82.4962 21.9847 82.6362 21.8773 82.8135 21.756C83.0002 21.6253 83.2242 21.5087 83.4855 21.406C83.7468 21.3033 84.0408 21.252 84.3675 21.252C85.2075 21.252 85.8375 21.49 86.2575 21.966C86.6775 22.442 86.8875 23.1093 86.8875 23.968V25.746L87.1815 27.146L86.8875 28H84.3675V24.332C84.3675 23.9773 84.2882 23.7067 84.1295 23.52C83.9802 23.324 83.7422 23.226 83.4155 23.226L82.5475 23.492V28H80.0275ZM90.7014 28.14C90.2627 28.14 89.8381 28.028 89.4274 27.804C89.0261 27.58 88.6947 27.2253 88.4334 26.74C88.1721 26.2547 88.0414 25.62 88.0414 24.836C88.0414 23.968 88.1674 23.2727 88.4194 22.75C88.6807 22.2273 89.0167 21.8493 89.4274 21.616C89.8381 21.3733 90.2627 21.252 90.7014 21.252C91.3641 21.252 91.8307 21.308 92.1014 21.42C92.3814 21.532 92.5214 21.588 92.5214 21.588L92.3814 18.942L92.5214 18.102H95.0554V25.76L95.3354 27.16L95.0554 28.014H92.6614V27.328L92.5214 27.258C92.5214 27.258 92.4514 27.3327 92.3114 27.482C92.1714 27.622 91.9661 27.7667 91.6954 27.916C91.4247 28.0653 91.0934 28.14 90.7014 28.14ZM91.7514 26.166L92.5214 25.97V23.926C92.5214 23.7113 92.4514 23.5433 92.3114 23.422C92.1714 23.2913 91.9847 23.226 91.7514 23.226C91.4061 23.226 91.1447 23.3427 90.9674 23.576C90.7901 23.8 90.7014 24.1733 90.7014 24.696C90.7014 25.2093 90.8041 25.5827 91.0094 25.816C91.2147 26.0493 91.4621 26.166 91.7514 26.166ZM98.1345 28.42L96.5945 26.88L98.1345 25.34L99.6745 26.88L98.1345 28.42ZM3.08 45V37.328L0.28 37.468V35.088H8.47V37.468L5.6 37.328V42.76L5.754 44.16L5.6 45H3.08ZM14.1446 45.14C13.5099 45.14 12.8939 45.07 12.2966 44.93C11.6993 44.7807 11.1579 44.5193 10.6726 44.146C10.1966 43.7727 9.81859 43.2547 9.53859 42.592C9.25859 41.9293 9.11859 41.08 9.11859 40.044C9.11859 39.0827 9.25859 38.2753 9.53859 37.622C9.81859 36.9687 10.1919 36.446 10.6586 36.054C11.1253 35.662 11.6339 35.382 12.1846 35.214C12.7446 35.0367 13.3046 34.948 13.8646 34.948C14.3406 34.948 14.8026 34.9853 15.2506 35.06C15.7079 35.1347 16.0393 35.2187 16.2446 35.312L17.7986 36.586L16.5386 38.616L14.1446 37.384C13.4819 37.384 12.9219 37.6033 12.4646 38.042C12.0073 38.4713 11.7786 39.1387 11.7786 40.044C11.7786 40.688 11.8906 41.2107 12.1146 41.612C12.3479 42.0133 12.6653 42.3073 13.0666 42.494C13.4679 42.6807 13.9253 42.774 14.4386 42.774C14.9799 42.774 15.4419 42.732 15.8246 42.648C16.2073 42.5547 16.5433 42.4473 16.8326 42.326C17.1219 42.1953 17.3973 42.0693 17.6586 41.948V44.3C17.3319 44.5053 16.8979 44.6967 16.3566 44.874C15.8153 45.0513 15.0779 45.14 14.1446 45.14ZM22.3113 42.06C22.0033 42.06 21.742 42.0133 21.5273 41.92C21.3126 41.8173 21.1213 41.7007 20.9533 41.57C20.7853 41.4393 20.622 41.3273 20.4633 41.234C20.3046 41.1313 20.1273 41.08 19.9313 41.08L19.6653 41.92H18.6713C18.6713 41.3413 18.788 40.8467 19.0213 40.436C19.2546 40.0253 19.6046 39.82 20.0713 39.82C20.3606 39.82 20.6126 39.8713 20.8273 39.974C21.042 40.0673 21.2333 40.1793 21.4013 40.31C21.5786 40.4407 21.7513 40.5573 21.9193 40.66C22.0873 40.7533 22.2693 40.8 22.4653 40.8L22.7313 39.96H23.7253C23.7253 40.5947 23.6133 41.1033 23.3893 41.486C23.1653 41.8687 22.806 42.06 22.3113 42.06Z" fill="#263D52"/>
</svg>
